<?xml version="1.0" encoding="UTF-8"?>
<svg width="500" height="400" viewBox="0 0 500 400" fill="none" xmlns="http://www.w3.org/2000/svg">
  <rect x="10" y="10" width="480" height="380" rx="10" fill="#222222" stroke="#333333" stroke-width="6"/>
  <rect x="20" y="20" width="460" height="360" rx="5" fill="#111111"/>
  <rect x="30" y="30" width="440" height="50" fill="#333333"/>
  <rect x="40" y="40" width="100" height="30" rx="5" fill="#444444"/>
  <rect x="150" y="40" width="100" height="30" rx="5" fill="#444444"/>
  <rect x="30" y="90" width="200" height="280" fill="#333333"/>
  <rect x="240" y="90" width="230" height="280" fill="#333333"/>
  <rect x="40" y="100" width="180" height="80" rx="5" fill="#444444"/>
  <rect x="40" y="190" width="180" height="80" rx="5" fill="#444444"/>
  <rect x="40" y="280" width="180" height="80" rx="5" fill="#444444"/>
  <rect x="250" y="100" width="210" height="120" rx="5" fill="#444444"/>
  <rect x="250" y="230" width="100" height="130" rx="5" fill="#444444"/>
  <rect x="360" y="230" width="100" height="130" rx="5" fill="#444444"/>
</svg>
