<?xml version="1.0" encoding="UTF-8"?>
<svg width="400" height="500" viewBox="0 0 400 500" fill="none" xmlns="http://www.w3.org/2000/svg">
  <rect x="10" y="10" width="380" height="480" rx="20" fill="#222222" stroke="#333333" stroke-width="6"/>
  <rect x="20" y="20" width="360" height="460" rx="15" fill="#111111"/>
  <rect x="30" y="30" width="340" height="60" fill="#333333"/>
  <rect x="40" y="45" width="120" height="30" rx="5" fill="#444444"/>
  <rect x="30" y="100" width="340" height="80" rx="10" fill="#333333"/>
  <rect x="30" y="190" width="340" height="80" rx="10" fill="#333333"/>
  <rect x="30" y="280" width="340" height="80" rx="10" fill="#333333"/>
  <rect x="30" y="370" width="340" height="80" rx="10" fill="#333333"/>
  <circle cx="60" cy="140" r="15" fill="#444444"/>
  <rect x="85" y="130" width="265" height="10" rx="5" fill="#444444"/>
  <rect x="85" y="150" width="200" height="10" rx="5" fill="#444444"/>
  <circle cx="60" cy="230" r="15" fill="#444444"/>
  <rect x="85" y="220" width="265" height="10" rx="5" fill="#444444"/>
  <rect x="85" y="240" width="200" height="10" rx="5" fill="#444444"/>
  <circle cx="60" cy="320" r="15" fill="#444444"/>
  <rect x="85" y="310" width="265" height="10" rx="5" fill="#444444"/>
  <rect x="85" y="330" width="200" height="10" rx="5" fill="#444444"/>
  <circle cx="60" cy="410" r="15" fill="#444444"/>
  <rect x="85" y="400" width="265" height="10" rx="5" fill="#444444"/>
  <rect x="85" y="420" width="200" height="10" rx="5" fill="#444444"/>
</svg>
